<?xml version="1.0" encoding="UTF-8"?>
<svg id="letter-o" xmlns="http://www.w3.org/2000/svg" viewBox="0 0 1175.87551 1186.41203">
  <defs>
    <style>
      .cls-1 {
        fill: #e41e26;
      }
    </style>
  </defs>
  <path id="letter_o" data-name="letter o" class="cls-1" d="M960.32749,450.05321c-16.8671-59.03617-45.65787-110.07501-86.22677-153.18883-69.65166-73.86777-160.8964-110.80187-273.73422-110.80187-119.38053,0-215.35037,38.5334-287.69118,115.74574-18.32172,19.4848-34.31729,40.56934-47.9858,63.10762-9.16086,15.04992-17.23098,30.75439-24.21123,47.11294h204.30089c.58221-.87242,1.16264-1.67251,1.81762-2.47215,14.54094-18.53961,31.1906-33.44398,49.80253-44.64079,28.28223-17.08542,61.36322-25.66452,99.02375-25.66452,60.63635,0,108.40294,22.82938,143.30066,68.34259,31.04504,40.5689,48.34968,95.46085,51.76659,164.82141.43577,8.5791.65409,17.37653.65409,26.46461,0,7.05214-.14555,13.8864-.50854,20.64788h187.06902c.58132-10.03328.79876-20.21167.79876-30.53606,0-50.45707-6.03328-96.69715-18.17617-138.93855ZM749.33923,766.46416c-3.78079,5.81629-7.85179,11.41469-12.21478,16.79477-36.06124,44.27691-84.77303,66.45219-146.13625,66.45219-59.47283,0-107.67518-22.7566-144.39141-68.34259-36.71622-45.58598-55.11072-107.53008-55.11072-185.76039,0-12.65054.50943-24.86488,1.5274-36.64345,1.30907-16.50366,3.63523-32.20812,6.97937-47.1125h-188.52365c-4.94342,29.37253-7.41513,60.41758-7.41513,93.13469,0,48.71223,6.03417,93.64367,18.17617,134.79478,17.23098,58.81784,46.82228,109.85668,88.77214,153.18839,71.25006,73.64989,163.51277,110.51122,276.71358,110.51122,116.11006,0,210.26317-38.02441,282.5312-114.07367,33.87975-35.69781,59.76304-76.63058,77.72089-122.94343,5.88951-15.1227,10.9057-30.82672,15.12314-47.11294h-190.55871c-6.10783,17.15864-13.81496,32.93544-23.19326,47.11294Z"/>
</svg>