<svg id="close-icon" xmlns="http://www.w3.org/2000/svg" width="36.326" height="32" viewBox="0 0 36.326 32">
  <g id="Group_9" data-name="Group 9" transform="translate(0.05 0)">
    <path id="Path_93" data-name="Path 93" d="M4.866,2.657,37.8,6.475,32.934,3.818,0,0Z" transform="matrix(-0.809, -0.588, 0.588, -0.809, 30.531, 32)" fill="#fdffff"/>
    <path id="Path_92" data-name="Path 92" d="M4.854,3.75,37.788-.069,32.923,2.588-.012,6.406Z" transform="matrix(-0.809, 0.588, -0.588, -0.809, 34.287, 5.19)" fill="#fdffff"/>
    <path id="Path_90" data-name="Path 90" d="M4.854,3.75,37.788-.069,32.923,2.588-.012,6.406Z" transform="matrix(0.809, -0.588, 0.588, 0.809, 1.94, 26.81)" fill="#fdffff"/>
    <path id="Path_91" data-name="Path 91" d="M4.866,2.657,37.8,6.475,32.934,3.818,0,0Z" transform="matrix(0.809, 0.588, -0.588, 0.809, 5.696, 0)" fill="#fdffff"/>
  </g>
  <path id="Path_97" data-name="Path 97" d="M0,0,11.737,1.257l1.257,11.737L1.257,11.737Z" transform="translate(18.163 6.812) rotate(45)"/>
  <g id="Group_10" data-name="Group 10" transform="translate(10.498 8.177)">
    <line id="Line_6" data-name="Line 6" x2="21.681" transform="translate(15.331 0) rotate(135)" fill="none" stroke="#e50000" stroke-width="2"/>
    <line id="Line_7" data-name="Line 7" x2="21.681" transform="translate(0 0.315) rotate(45)" fill="none" stroke="#e50000" stroke-width="2"/>
  </g>
</svg>
