<svg xmlns="http://www.w3.org/2000/svg" width="686.099" height="724.166" viewBox="0 0 686.099 724.166">
  <g id="dsk-hero" transform="translate(-79.535 -103.557)">
    <g id="Black-Logo" transform="translate(79.535 103.557)">
      <path id="Path_1" data-name="Path 1" d="M865.5,488.151q-22.414-78.452-76.39-135.713Q696.55,254.277,546.6,254.277q-158.643,0-254.871,102.541a335.209,335.209,0,0,0-42.511,55.908,326.915,326.915,0,0,0-21.449,41.738H408.766c.516-.773,1.03-1.482,1.61-2.19A162.672,162.672,0,0,1,454.5,412.727c25.056-15.136,54.363-22.737,87.727-22.737q80.578,0,126.953,60.546,41.255,53.911,45.861,146.018c.386,7.6.579,15.394.579,23.445,0,6.248-.129,12.3-.451,18.292H880.894c.515-8.889.708-17.906.708-27.052q0-67.051-16.1-123.088ZM678.581,768.465a175.234,175.234,0,0,1-10.822,14.879q-47.921,58.838-129.464,58.871-79.032,0-127.918-60.546Q361.585,721.091,361.553,617.1q0-16.811,1.353-32.463a298.3,298.3,0,0,1,6.183-41.738H202.072a496.946,496.946,0,0,0-6.569,82.51q0,64.733,16.1,119.417,22.9,78.161,78.645,135.712,94.682,97.872,245.146,97.9,154.3,0,250.3-101.06A329.753,329.753,0,0,0,854.55,768.465a371.487,371.487,0,0,0,13.4-41.738H699.128a192.236,192.236,0,0,1-20.547,41.738Z" transform="translate(-195.503 -254.277)" fill="#fff"/>
    </g>
  </g>
</svg>
