<svg xmlns="http://www.w3.org/2000/svg" width="356" height="603.159" viewBox="0 0 356 603.159">
  <path id="mb-hero" d="M543.148,361.044q-11.63-45.207-39.637-78.2-48.026-56.564-125.83-56.564-82.316,0-132.246,59.088a192.578,192.578,0,0,0-22.058,32.216,196.909,196.909,0,0,0-11.129,24.051H306.16c.268-.445.534-.854.836-1.262a88.125,88.125,0,0,1,22.893-22.789c13-8.722,28.208-13.1,45.519-13.1q41.81,0,65.873,34.889,21.406,31.065,23.8,84.141c.2,4.38.3,8.871.3,13.51,0,3.6-.067,7.089-.234,10.541h85.992c.267-5.122.367-10.318.367-15.589q0-38.637-8.355-70.928ZM446.161,708.439a101.306,101.306,0,0,1-5.615,8.574q-24.865,33.9-67.176,33.924-41.008,0-66.374-34.889-25.317-34.908-25.333-94.83,0-9.687.7-18.706a189.673,189.673,0,0,1,3.208-24.051H198.912A317.336,317.336,0,0,0,195.5,626q0,37.3,8.355,68.813,11.881,45.04,40.807,78.2,49.128,56.4,127.2,56.416,80.061,0,129.874-58.235a193.956,193.956,0,0,0,35.727-62.762,231.412,231.412,0,0,0,6.952-24.051h-87.6a116.2,116.2,0,0,1-10.661,24.051Z" transform="translate(-195.503 -226.277)" fill="#fff"/>
</svg>
