<svg xmlns="http://www.w3.org/2000/svg" width="680" height="754.693" viewBox="0 0 680 754.693">
  <path id="tb-hero" d="M859.543,498.01q-22.215-81.759-75.711-141.434-91.736-102.3-240.35-102.3-157.233,0-252.605,106.864A351.263,351.263,0,0,0,227.485,462.9H406.87c.511-.806,1.021-1.544,1.6-2.282q19.151-25.675,43.729-41.215c24.833-15.774,53.88-23.7,86.947-23.7q79.862,0,125.824,63.1,40.889,56.184,45.453,152.173c.383,7.921.574,16.043.574,24.434,0,6.511-.128,12.821-.447,19.063H874.8c.511-9.263.7-18.66.7-28.193q0-69.878-15.96-128.277ZM674.287,790.141a182.6,182.6,0,0,1-10.726,15.506Q616.067,866.965,535.248,867q-78.329,0-126.782-63.1-48.358-63.132-48.39-171.505,0-17.519,1.341-33.831a325.821,325.821,0,0,1,6.128-43.5H202.014a543.978,543.978,0,0,0-6.511,85.988q0,67.461,15.959,124.451,22.694,81.457,77.946,141.433,93.841,102,242.967,102.031,152.925,0,248.074-105.32a346.5,346.5,0,0,0,68.242-113.509,401.6,401.6,0,0,0,13.278-43.5H694.651a204.726,204.726,0,0,1-20.364,43.5Z" transform="translate(-195.503 -254.277)" fill="#fff"/>
</svg>
